<svg width="261" height="261" viewBox="0 0 261 261" fill="none" xmlns="http://www.w3.org/2000/svg"><g transform="translate(0, 25)"><g clip-path="url(#hero_svg__clip0_2_3232)" fill-rule="evenodd" clip-rule="evenodd"><path opacity="0.3" d="M244.586 62.789l-36.387 21.573c8.74 8.149 14.212 19.758 14.212 32.65 0 3.588-.435 7.072-1.234 10.416l39.291 13.096-42.118-4.91c-6.63 14.438-20.729 24.723-37.354 25.912l21.639 33.928-36.86-33.318c-7.223 7.947-16.706 13.805-27.435 16.557l-4.213 31.834-4.764-30.314c-1.631.143-3.277.23-4.945.23-12.955 0-24.87-4.422-34.346-11.822l-29.044 26.818 21.827-32.799a44.052 44.052 0 01-3.138.123c-14.838 0-27.942-7.395-35.85-18.695L.471 153.304l39.072-16.973a43.57 43.57 0 01-3.564-17.305c0-13.188 5.845-25.002 15.075-33.021L10.622 64.959l42.595 11.827a46.963 46.963 0 01-.399-6.013c0-17.416 9.563-32.588 23.72-40.581L61.505.521l21.022 26.833A46.439 46.439 0 0199.4 24.19c15.103 0 28.509 7.202 37.02 18.344a44.359 44.359 0 0122.492-6.095 44.357 44.357 0 0121.634 5.602l26.638-28.306-19.741 33.034c8.63 7.196 14.495 17.591 15.779 29.365l41.365-13.345z" fill="#A591DC"></path><path d="M215.386 117.036c0 20.791-16.854 37.646-37.646 37.646-4.614 0-9.032-.833-13.117-2.353-8.816 12.768-23.544 21.14-40.234 21.14-15.41 0-29.145-7.14-38.102-18.283a36.876 36.876 0 01-6.598.603c-20.29 0-36.738-16.448-36.738-36.737 0-14.266 8.137-26.623 20.017-32.71A39.433 39.433 0 0159.795 70.8c0-21.858 17.72-39.578 39.578-39.578 15.253 0 28.483 8.635 35.09 21.278 6.569-5.624 15.095-9.028 24.42-9.028 20.754 0 37.578 16.825 37.578 37.579a38.27 38.27 0 01-.148 3.246c11.386 6.472 19.073 18.704 19.073 32.74z" fill="#fff"></path><path d="M177.74 154.682c-4.614 0-9.032-.834-13.117-2.354-8.816 12.768-23.544 21.141-40.234 21.141-15.41 0-29.145-7.141-38.102-18.283a36.876 36.876 0 01-6.598.602c-20.29 0-36.738-16.447-36.738-36.736 0-1.197.062-2.381.174-3.549 1.785 18.625 17.472 33.191 36.564 33.191.722 0 1.438-.027 2.15-.068a48.634 48.634 0 01-6.32-24.027c0-1.193.058-2.373.142-3.547 1.82 25.332 22.932 45.322 48.728 45.322 25.796 0 46.909-19.99 48.729-45.322.084 1.174.142 2.354.142 3.547a48.659 48.659 0 01-5.105 21.746 37.645 37.645 0 009.587 1.242c19.595 0 35.686-14.971 37.475-34.098a38.14 38.14 0 01.171 3.547c-.002 20.79-16.857 37.646-37.648 37.646z" fill="#ECE6FF"></path><path d="M169.231 12.685L141.46 94.646c-.367 1.306-1.729 2.365-3.042 2.365h-23.186c-1.757 0-2.376-1.872-2.01-3.178l18.186-81.96c.367-1.307 1.729-2.366 3.042-2.366h32.771c1.906 0 2.525 1.576 2.01 3.178zM139.954 121.7c0 10.337-8.433 19.042-18.77 19.042-10.338 0-19.042-8.705-19.042-19.042 0-10.065 8.704-18.771 19.042-18.771 10.337.001 18.77 8.706 18.77 18.771z" fill="#DE5833"></path><path d="M135.081 89.915h-14.267l15.826-73.314h23.777l-25.336 73.314zm-2.791 31.831c0 6.461-5.271 11.902-11.731 11.902s-11.902-5.441-11.902-11.902c0-6.291 5.441-11.731 11.902-11.731 6.461 0 11.731 5.44 11.731 11.731z" fill="#EB876C"></path></g></g><defs><clipPath id="hero_svg__clip0_2_3232"><path fill="#fff" transform="translate(.5 .5)" d="M0 0h260v210H0z"/></clipPath></defs></svg>